# xmcd CD database file
#
# Track frame offsets:
#	150
#	25482
#	44705
#	80772
#	93437
#	113662
#	126595
#
# Disc length: 2051 seconds
#
# Revision: 0
# Processed by: cddbd v1.4b42PL1 Copyright (c) Steve Scherf et al.
# Submitted via: CDex 1.40Beta5
#
DISCID=61080107
DTITLE=Manal - Manal
DYEAR=1900
DGENRE=Blues
TTITLE0=Avellaneda blues
TTITLE1=Una casa de 10 pinos
TTITLE2=Informe de un dia
TTITLE3=Jugo de tomate
TTITLE4=Porque hoy naci
TTITLE5=Avenida Rivadavia
TTITLE6=Todo el dia me pregunto
EXTD=ID3G:   0
EXTT0=
EXTT1=
EXTT2=
EXTT3=
EXTT4=
EXTT5=
EXTT6=
PLAYORDER=
